<svg xmlns="http://www.w3.org/2000/svg" xmlns:xlink="http://www.w3.org/1999/xlink" width="250" height="250" viewBox="0 0 250 250">
  <defs>
    <clipPath id="clip-path">
      <rect id="Rectangle_3" data-name="Rectangle 3" width="250" height="250" transform="translate(250 250) rotate(180)" fill="#fff"/>
    </clipPath>
  </defs>
  <g id="Group_10" data-name="Group 10" clip-path="url(#clip-path)">
    <path id="Path_80" data-name="Path 80" d="M0,0H250V250H0Z" fill="#fff"/>
    <path id="Path_81" data-name="Path 81" d="M123.37,46.06a80.61,80.61,0,1,1,0,161.215h0a80.61,80.61,0,0,1,0-161.215Z" fill="#cae8e8"/>
    <path id="Path_82" data-name="Path 82" d="M123.355,172.78H190.91c-16.57,37.57-67.29,36.61-67.55,36.6s-51,.965-67.545-36.6Z" fill="#21a556"/>
    <path id="Path_83" data-name="Path 83" d="M84.035,98.715a6.92,6.92,0,1,1,6.92-6.92A6.92,6.92,0,0,1,84.035,98.715Z" fill="#fff"/>
    <path id="Path_84" data-name="Path 84" d="M63.93,98.72a8.635,8.635,0,1,1,8.635-8.635A8.635,8.635,0,0,1,63.93,98.72Z" fill="#fff"/>
    <path id="Path_85" data-name="Path 85" d="M73.975,98.715a11.17,11.17,0,1,1,11.17-11.17A11.17,11.17,0,0,1,73.975,98.715Z" fill="#fff"/>
    <path id="Path_86" data-name="Path 86" d="M84.035,98.72H63.93V93.865H84.26Z" fill="#fff"/>
    <path id="Path_87" data-name="Path 87" d="M181.309,127.517a10.42,10.42,0,1,1,13.583-5.713A10.42,10.42,0,0,1,181.309,127.517Z" fill="#fff"/>
    <path id="Path_88" data-name="Path 88" d="M154.985,128.285a13,13,0,1,1,12.995-13A12.995,12.995,0,0,1,154.985,128.285Z" fill="#fff"/>
    <path id="Path_89" data-name="Path 89" d="M153.735,115.32a16.815,16.815,0,1,1,20.22,12.517A16.815,16.815,0,0,1,153.735,115.32Z" fill="#fff"/>
    <path id="Path_90" data-name="Path 90" d="M185.245,128.285h-30.26V120.98h30.6Z" fill="#fff"/>
    <path id="Path_91" data-name="Path 91" d="M138.349,71.091a6.72,6.72,0,1,1,8.084,5A6.719,6.719,0,0,1,138.349,71.091Z" fill="#fff"/>
    <path id="Path_92" data-name="Path 92" d="M117.216,69.813A8.38,8.38,0,1,1,127.3,76.044,8.38,8.38,0,0,1,117.216,69.813Z" fill="#fff"/>
    <path id="Path_93" data-name="Path 93" d="M124.564,67.912a10.845,10.845,0,1,1,13.046,8.064A10.845,10.845,0,0,1,124.564,67.912Z" fill="#fff"/>
    <path id="Path_94" data-name="Path 94" d="M144.885,76.27H125.37V71.56H145.1Z" fill="#fff"/>
    <path id="Path_95" data-name="Path 95" d="M112.565,170.135a4.052,4.052,0,0,0,1.255-.195,4.216,4.216,0,0,0,2.775-5.285c-.06-.21-5.88-18.92-7.72-29.185,4.5-1.615,15.715-4.325,25.295-6.29a4.225,4.225,0,0,0-1.695-8.275c-.075,0-7.5,1.54-14.785,3.33-4.34,1.065-7.805,2-10.305,2.84-3.11,1-7.81,2.56-7.3,6.795,1.205,10,8.145,32.35,8.44,33.295a4.228,4.228,0,0,0,4.035,2.97Z" fill="#2e4672"/>
    <path id="Path_96" data-name="Path 96" d="M115.175,164.04s5.2-7.175,6.945-4.72C123.72,161.57,115.175,164.04,115.175,164.04Z" fill="#514f4f"/>
    <path id="Path_97" data-name="Path 97" d="M116.14,162.9l4,18s-15.5,4.605-26.255-.715c0,0-2.4-10.47,14.425-7.835l-2-8S110.135,166.3,116.14,162.9Z" fill="#63605e"/>
    <path id="Path_98" data-name="Path 98" d="M120.615,179.925s-14.7,5.375-26.885-.285l-.405,1.555s9.78,6.03,27.31.64Z" fill="#514f4f"/>
    <path id="Path_99" data-name="Path 99" d="M91.745,112.545c17.305,0,28.1-3.97,32.085-11.79,5.09-10-3.265-21.67-3.62-22.165a3.431,3.431,0,0,0-5.555,4.03c1.75,2.435,5.7,9.87,3.05,15.04-2.685,5.245-11.665,8-25.96,8a3.435,3.435,0,1,0,0,6.865Z" fill="#efc09a"/>
    <g id="Group_7" data-name="Group 7" opacity="0.17" style="mix-blend-mode: multiply;isolation: isolate">
      <g id="Group_6" data-name="Group 6" opacity="0.17" style="mix-blend-mode: multiply;isolation: isolate">
        <path id="Path_100" data-name="Path 100" d="M91.745,112.545c17.305,0,28.1-3.97,32.085-11.79,5.09-10-3.265-21.67-3.62-22.165a3.431,3.431,0,0,0-5.555,4.03c1.75,2.435,5.7,9.87,3.05,15.04-2.685,5.245-11.665,8-25.96,8a3.435,3.435,0,1,0,0,6.865Z" fill="#1e0909"/>
      </g>
    </g>
    <path id="Path_101" data-name="Path 101" d="M126.555,98.74l-8.685-1s.37-7.82-3.235-13.765a5.472,5.472,0,0,1-.79-3.525,4.5,4.5,0,0,1,3.5-3.855c5-1.545,6.925,4.765,6.925,4.765S127.455,91.165,126.555,98.74Z" fill="#2e4672"/>
    <path id="Path_102" data-name="Path 102" d="M121,72.68s-7.56,1.385-9.67-2.63-3.875-20.58-6-23c0,0,23.5-6.655,27.145-2.5S153.455,72.195,121,72.68Z" fill="#514f4f"/>
    <path id="Path_103" data-name="Path 103" d="M56.3,216.335a26.55,26.55,0,1,1,26.55-26.55A26.55,26.55,0,0,1,56.3,216.335Z" fill="#514f4f"/>
    <path id="Path_104" data-name="Path 104" d="M56.295,204.235a14.45,14.45,0,1,1,14.45-14.45A14.45,14.45,0,0,1,56.295,204.235Z" fill="#e0dada"/>
    <path id="Path_105" data-name="Path 105" d="M53.606,202.045a12.545,12.545,0,1,1,14.946-9.559A12.545,12.545,0,0,1,53.606,202.045Z" fill="#fff"/>
    <path id="Path_106" data-name="Path 106" d="M59.73,190.445,75.375,174.8a2.82,2.82,0,0,0,0-4h0a2.819,2.819,0,0,0-4,0L55.73,186.445a2.82,2.82,0,0,0,0,4h0a2.819,2.819,0,0,0,4,0Z" fill="#0268b3"/>
    <path id="Path_107" data-name="Path 107" d="M178.025,216.335a26.55,26.55,0,1,1,26.55-26.55A26.55,26.55,0,0,1,178.025,216.335Z" fill="#514f4f"/>
    <path id="Path_108" data-name="Path 108" d="M178.025,204.235a14.45,14.45,0,1,1,14.45-14.45A14.451,14.451,0,0,1,178.025,204.235Z" fill="#e0dada"/>
    <path id="Path_109" data-name="Path 109" d="M178.025,202.33a12.545,12.545,0,1,1,12.545-12.545A12.546,12.546,0,0,1,178.025,202.33Z" fill="#fff"/>
    <path id="Path_110" data-name="Path 110" d="M83.57,117.78H94.105A3.885,3.885,0,0,1,98,121.665V179.26a3.885,3.885,0,0,0,3.885,3.885h30.8a3.885,3.885,0,0,0,3.885-3.885V144.19a3.885,3.885,0,0,1,3.885-3.885H185.19a3.762,3.762,0,0,1,.785.08c3.86.8,33.615,8.15,35.68,45.27a3.9,3.9,0,0,1-3.88,4.13H90a3.87,3.87,0,0,1-3.86-3.47c-1.355-13.445-10.455-18.7-14.89-20.475a3.864,3.864,0,0,1-2.415-3.6V145.5a3.821,3.821,0,0,1,2.4-3.6c6.41-2.4,8.03-14.365,8.44-20.5a3.885,3.885,0,0,1,3.89-3.615Z" fill="#0268b3"/>
    <path id="Path_111" data-name="Path 111" d="M89.34,191.19s-11.715,4.365-18.765-3.65-14.265-15.455-36.79-14.45c0,0,4.4-14.28,22.5-14.28S85.155,171.885,89.34,191.19Z" fill="#03395b"/>
    <path id="Path_112" data-name="Path 112" d="M205.63,186.465H150a3.179,3.179,0,0,1-3.18-3.18V156.96a3.179,3.179,0,0,1,3.18-3.18h18.165A37.5,37.5,0,0,1,197.5,167.96l10.6,13.35a3.18,3.18,0,0,1-2.465,5.155Z" fill="#03395b"/>
    <path id="Path_113" data-name="Path 113" d="M49.532,190.871a6.84,6.84,0,1,1,7.835,5.674A6.84,6.84,0,0,1,49.532,190.871Z" fill="#0268b3"/>
    <path id="Path_114" data-name="Path 114" d="M139.225,133.365H204.29a4.525,4.525,0,1,1,0,9.05H139.225a4.525,4.525,0,1,1,0-9.05Z" fill="#514f4f"/>
    <path id="Path_115" data-name="Path 115" d="M216.59,157.2h.6a2.265,2.265,0,0,1,2.265,2.265V174.97a2.265,2.265,0,0,1-2.265,2.265h-.6a2.265,2.265,0,0,1-2.265-2.265V159.465A2.265,2.265,0,0,1,216.59,157.2Z" fill="#e0dada"/>
    <path id="Path_116" data-name="Path 116" d="M218.45,177.235a1,1,0,0,0,1-1v-18a1,1,0,0,0-2,0v18a1,1,0,0,0,1,1Z" fill="#e63231"/>
    <path id="Path_117" data-name="Path 117" d="M154.34,182.945h43.795a.809.809,0,0,0,.805-.805h0a.809.809,0,0,0-.805-.8H154.34a.809.809,0,0,0-.8.8h0a.8.8,0,0,0,.8.805Z" fill="#0268b3"/>
    <path id="Path_118" data-name="Path 118" d="M154.34,176.435h34.29a.805.805,0,0,1,0,1.61H154.34a.805.805,0,0,1,0-1.61Z" fill="#0268b3"/>
    <path id="Path_119" data-name="Path 119" d="M154.34,173.14h23.88a.809.809,0,0,0,.8-.8h0a.806.806,0,0,0-.8-.805H154.34a.813.813,0,0,0-.308.061.8.8,0,0,0-.261.175.806.806,0,0,0,.569,1.374Z" fill="#0268b3"/>
    <path id="Path_120" data-name="Path 120" d="M154.34,168.235h13.875a.806.806,0,0,0,.805-.805.809.809,0,0,0-.805-.8H154.34a.809.809,0,0,0-.8.8h0a.8.8,0,0,0,.8.805Z" fill="#0268b3"/>
    <path id="Path_121" data-name="Path 121" d="M151.475,117.26s-13.975,1.735-21.235,0c0,0-12.5-29.85-13.82-36.65s20.96-8.38,27-4.685S151.475,117.26,151.475,117.26Z" fill="#679fc1"/>
    <path id="Path_122" data-name="Path 122" d="M124.362,65.781l2.487-.335a3.489,3.489,0,0,1,3.924,2.994l.767,5.7a3.49,3.49,0,0,1-2.994,3.924l-2.487.335a3.49,3.49,0,0,1-3.924-2.994l-.767-5.7A3.49,3.49,0,0,1,124.362,65.781Z" fill="#efc09a"/>
    <g id="Group_8" data-name="Group 8" opacity="0.17" style="mix-blend-mode: multiply;isolation: isolate">
      <path id="Path_123" data-name="Path 123" d="M123.914,62.47l2.488-.335a3.49,3.49,0,0,1,3.924,2.994l.767,5.7a3.491,3.491,0,0,1-2.994,3.924l-2.488.335a3.49,3.49,0,0,1-3.924-2.994l-.766-5.7A3.49,3.49,0,0,1,123.914,62.47Z" fill="#1e0909"/>
    </g>
    <path id="Path_124" data-name="Path 124" d="M118.7,39.007l6.4-.861a11.915,11.915,0,0,1,13.4,10.22l1.341,9.97a11.915,11.915,0,0,1-10.221,13.4l-6.4.861a11.915,11.915,0,0,1-13.4-10.22l-1.341-9.97A11.915,11.915,0,0,1,118.7,39.007Z" fill="#efc09a"/>
    <g id="Group_9" data-name="Group 9" opacity="0.17" style="mix-blend-mode: multiply;isolation: isolate">
      <path id="Path_125" data-name="Path 125" d="M108.54,51.555A13.294,13.294,0,0,1,120,38.83l3.755-.5a13.289,13.289,0,0,1,14.9,11.37l1,7.315a13.107,13.107,0,0,1,.1,2.2c-3.265.185-9.75-.77-12.335-10.59C127.425,48.625,117.325,52.585,108.54,51.555Z" fill="#1e0909"/>
    </g>
    <path id="Path_126" data-name="Path 126" d="M140.455,58.31s-8.335,2.5-12.755-10.675c0,0-11.14,4.34-19.095,3.175a18.842,18.842,0,0,0,0,2.4s-6.775-8.555,2.86-19.335c0,0-.58,1.41,2.115,1.9l-.72-1.095s4.39,1.415,7.41.77,11.34-1.24,13.57,1.135l-.795-2a19.587,19.587,0,0,1,1.225,2l.09.32a13.767,13.767,0,0,1,3.74-1.645,22.1,22.1,0,0,0-1.955,2.5s2.785,1.155,3.085,5.89S140.455,58.31,140.455,58.31Z" fill="#5b2b1d"/>
    <path id="Path_127" data-name="Path 127" d="M108.605,50.81a18.842,18.842,0,0,0,0,2.4,24.1,24.1,0,0,1-2.15-5.275c3.845,2.035,9.38.615,9.38.615l-1.24-.69c8.4,1.195,13.6-2.76,13.6-2.76l.31.9.5-.96c1.2,4.35,3.5,5.795,3.5,5.795l-.265-2.5a11.073,11.073,0,0,0,7.715,4.36c.27,3.11.5,5.635.5,5.635s-8.335,2.5-12.755-10.675C127.7,47.635,116.56,52,108.605,50.81Z" fill="#472218"/>
    <path id="Path_128" data-name="Path 128" d="M127.275,39.165l.335-1.3a15.955,15.955,0,0,1-2.815-2.94c.36,0,.73-.03,1.1-.035a21.527,21.527,0,0,0,7.97,4.91l.75-.6-.5.68a21.254,21.254,0,0,0,4.535,1A8.511,8.511,0,0,1,139,42c-.61-.03-1.19-.085-1.755-.155l.4,1.05-1.5-1.215a19.77,19.77,0,0,1-4.11-1.18l.085,1.365-.55-1.565a17.621,17.621,0,0,1-3.345-1.95Z" fill="#725139"/>
    <path id="Path_129" data-name="Path 129" d="M132.355,54.545c-.36,3.1.805,5.785,2.605,6s3.55-2.135,3.915-5.235-.8-5.79-2.6-6S132.72,51.445,132.355,54.545Z" fill="#efc09a"/>
    <path id="Path_130" data-name="Path 130" d="M133.58,54.69c-.225,1.935.5,3.615,1.625,3.745s2.22-1.335,2.445-3.275-.5-3.615-1.625-3.745S133.8,52.75,133.58,54.69Z" fill="#fff" opacity="0.17" style="mix-blend-mode: multiply;isolation: isolate"/>
    <path id="Path_131" data-name="Path 131" d="M113.9,50.64l-2.7.363a.871.871,0,0,0-.746.978l1.574,11.7a1.714,1.714,0,0,0,1.928,1.471l.991-.133a1.709,1.709,0,0,0,1.467-1.923l-1.577-11.724a.85.85,0,0,0-.956-.729Z" fill="#e59595"/>
    <path id="Path_132" data-name="Path 132" d="M114.77,65.035l-.635.085a1.9,1.9,0,0,1-1.57-.5c2.165.13,2.78-1,2.78-1L113.6,50.675h.2a.946.946,0,0,1,.7.184.933.933,0,0,1,.244.277.944.944,0,0,1,.12.349L116.4,62.92a1.9,1.9,0,0,1-1.635,2.115Z" fill="#bf7f7f"/>
    <path id="Path_133" data-name="Path 133" d="M117.655,55.145c.23,1.71,1.065,3,1.87,2.9s1.265-1.58,1.035-3.29-1.065-3-1.87-2.9S117.425,53.435,117.655,55.145Z" fill="#472218"/>
    <path id="Path_134" data-name="Path 134" d="M108.8,56.41c.22,1.67.795,2.97,1.27,2.9s.69-1.47.465-3.14-.8-2.975-1.275-2.91S108.575,54.735,108.8,56.41Z" fill="#472218"/>
    <path id="Path_135" data-name="Path 135" d="M113.4,66.135s9.135-.61,11.075-5.36c0,0,3.765,6.18-1.645,9.055C115.61,73.67,113.4,66.135,113.4,66.135Z" fill="#271e54"/>
    <path id="Path_136" data-name="Path 136" d="M123,65l-1.155,3.115a9.676,9.676,0,0,1,3.64-4.81c.5,2.045.5,4.86-2.665,6.54a7.7,7.7,0,0,1-4.26,1.075A10.136,10.136,0,0,1,123,65Z" fill="#e59595"/>
    <path id="Path_137" data-name="Path 137" d="M124,61.66c-.975,2.06-3.815,6.2-10.385,4.455C114.895,66,121.625,65.22,124,61.66Z" fill="#fff"/>
    <path id="Path_138" data-name="Path 138" d="M126,170.135a4.224,4.224,0,0,0,3.82-6c-.085-.18-7.6-16.24-10.42-26.14,5.245-1.425,17.5-3.585,28-5.1a4.236,4.236,0,0,0-1.18-8.39c-32.37,4.66-34,7-35.1,8.5a4.5,4.5,0,0,0-.765,3.5c2,10.175,11.425,30.34,11.825,31.2a4.226,4.226,0,0,0,3.815,2.44Z" fill="#425f8e"/>
    <path id="Path_139" data-name="Path 139" d="M135.575,116.725h9.64a8.32,8.32,0,0,1,8.32,8.32v.005a8.32,8.32,0,0,1-8.32,8.32h-9.64a8.32,8.32,0,0,1-8.32-8.32v-.005A8.32,8.32,0,0,1,135.575,116.725Z" fill="#425f8e"/>
    <path id="Path_140" data-name="Path 140" d="M83.67,105.46h9.19a5.53,5.53,0,0,1,5.53,5.53v1.335a5.53,5.53,0,0,1-5.53,5.53H83.67a5.53,5.53,0,0,1-5.53-5.53V110.99A5.53,5.53,0,0,1,83.67,105.46Z" fill="#03395b"/>
    <path id="Path_141" data-name="Path 141" d="M78.815,118.66h-1.35a1.89,1.89,0,0,1-1.89-1.89V106.545a1.89,1.89,0,0,1,1.89-1.89h1.35a1.89,1.89,0,0,1,1.89,1.89V116.77A1.89,1.89,0,0,1,78.815,118.66Z" fill="#e0dada"/>
    <path id="Path_142" data-name="Path 142" d="M76.745,118.66h-.33a.84.84,0,0,1-.84-.84V105.5a.84.84,0,0,1,.84-.84h.33a.84.84,0,0,1,.84.84V117.82A.84.84,0,0,1,76.745,118.66Z" fill="#ffce55"/>
    <path id="Path_143" data-name="Path 143" d="M129.675,164.04s5.2-7.175,6.945-4.72C138.22,161.57,129.675,164.04,129.675,164.04Z" fill="#514f4f"/>
    <path id="Path_144" data-name="Path 144" d="M130.635,162.9l4,18s-15.5,4.605-26.255-.715c0,0-2.4-10.47,14.425-7.835l-2-8S124.635,166.3,130.635,162.9Z" fill="#7a7673"/>
    <path id="Path_145" data-name="Path 145" d="M135.115,179.925s-14.7,5.375-26.89-.285l-.4,1.555s9.785,6.03,27.315.64Z" fill="#514f4f"/>
    <path id="Path_146" data-name="Path 146" d="M103.87,45.84a22.35,22.35,0,1,1,29.855,25.08c-3.635-5.325-1.83-22.77-3.96-25.065-1.655-1.785-15.72.33-24.115,1.785a1.539,1.539,0,0,1-1.78-1.8Z" fill="#0268b3"/>
    <path id="Path_147" data-name="Path 147" d="M122.16,43.35c11.455-1.4,10.37,2.445,15.5,11.81,2.6,4.745,6.635,2.775,10-.325A22.393,22.393,0,0,1,133.74,70.92c-3.635-5.325-1.83-22.77-3.96-25.065-1.655-1.785-15.72.33-24.115,1.785a1.535,1.535,0,0,1-1.77-1.245C107.425,45.945,114.14,44.325,122.16,43.35Z" fill="#03395b"/>
    <path id="Path_148" data-name="Path 148" d="M139.785,58.15c-2.248,0-4.07-2.948-4.07-6.585s1.822-6.585,4.07-6.585,4.07,2.948,4.07,6.585S142.033,58.15,139.785,58.15Z" fill="#fff"/>
    <path id="Path_149" data-name="Path 149" d="M138.32,51.565c0,1.9.955,3.45,2.135,3.45s2.135-1.545,2.135-3.45-.96-3.455-2.135-3.455S138.32,49.655,138.32,51.565Z" fill="#514f4f"/>
    <path id="Path_150" data-name="Path 150" d="M107.35,114.17c17.135,0,28.59-4.285,34.06-12.74,6.95-10.75,1.23-23.76,1-24.305a3.431,3.431,0,0,0-6.26,2.81c.08.175,4.41,10.25-.5,17.8-4.08,6.26-13.855,9.57-28.275,9.57a3.435,3.435,0,0,0,0,6.865Z" fill="#efc09a"/>
    <path id="Path_151" data-name="Path 151" d="M91.355,109.11l10.525,3.065a2.791,2.791,0,0,1,1.425,1.04,2.5,2.5,0,0,1,.43,2.24v.05a2.641,2.641,0,0,1-3.655,1.5L90.055,112.09a1.4,1.4,0,0,1-.535-1.68C89.805,109.14,91.355,109.11,91.355,109.11Z" fill="#514f4f"/>
    <path id="Path_152" data-name="Path 152" d="M128.035,175.9c-.906,0-1.64-1.419-1.64-3.17s.734-3.17,1.64-3.17,1.64,1.419,1.64,3.17S128.941,175.9,128.035,175.9Z" fill="#514f4f"/>
    <path id="Path_153" data-name="Path 153" d="M144.84,96.745l-8.5-2.11s1.5-8.445-1.835-14.96c0,0-1.08-5.19,4.07-6.07s6.245,5.63,6.245,5.63S146.72,89.355,144.84,96.745Z" fill="#425f8e"/>
    <path id="Path_154" data-name="Path 154" d="M155.94,92.61h49.98v40.755H155.94Z" fill="#d89c60"/>
    <path id="Path_155" data-name="Path 155" d="M179.3,91.9h3.255v41.46H179.3Z" fill="#03395b"/>
    <path id="Path_156" data-name="Path 156" d="M155.63,114.265V111.01h50.75v3.255Z" fill="#03395b"/>
    <path id="Path_157" data-name="Path 157" d="M190.345,94.86H203.1v5.76h-12.76Z" fill="#0268b3"/>
    <path id="Path_158" data-name="Path 158" d="M107.155,107.315s-8.61.665-9.385,2.15-2.55,5.235-2.33,5.63,3.96,2.935,5.19,2.76a1.369,1.369,0,0,0,1-.64,2.078,2.078,0,0,1-.765-2.13,2.45,2.45,0,0,1,2.12-2.23,3.5,3.5,0,0,1,.825,1.68c0,.23,5.3-.38,5.3-.38Z" fill="#efc09a"/>
  </g>
</svg>
